Coordinates
version=1
nRows=27
nColumns=12
inDegrees=yes

Units are S.I. units (second, meters, Newtons, ...)
Angles are in degrees

endheader
time	SC_y	SC_z	SC_x	AC_y	AC_z	AC_x	GH_y	GH_z	GH_yy	EL_x	PS_y
       0.0              -57.58          35.53          61.73          32.52        -0.5901         -19.45          42.41          43.15          36.83          89.86          20.92
   0.03098              -57.58          35.53          61.73          32.53        -0.5928         -19.45          42.41          43.15          36.82          89.86          20.92
   0.06197              -57.58          35.53          61.73          32.53        -0.5958         -19.45          42.41          43.14          36.82          89.85          20.93
   0.09295              -57.58          35.52          61.74          32.53        -0.5989         -19.45          42.41          43.13          36.82          89.85          20.93
    0.1239              -57.57          35.52          61.74          32.54        -0.6022         -19.45          42.41          43.12          36.82          89.84          20.94
    0.1549              -57.57          35.51          61.74          32.54        -0.6057         -19.45          42.42           43.1          36.82          89.83          20.94
    0.1859              -57.57          35.51          61.74          32.55        -0.6095         -19.45          42.42          43.09          36.81          89.83          20.95
    0.2169              -57.57           35.5          61.74          32.56        -0.6135         -19.45          42.42          43.08          36.81          89.82          20.95
    0.2479              -57.56           35.5          61.75          32.56        -0.6178         -19.45          42.42          43.06          36.81          89.81          20.96
    0.2789              -57.56          35.49          61.75          32.57        -0.6224         -19.45          42.43          43.05           36.8           89.8          20.97
    0.3098              -57.56          35.49          61.75          32.57        -0.6274         -19.45          42.43          43.03           36.8          89.79          20.97
    0.3408              -57.56          35.48          61.75          32.58        -0.6328         -19.45          42.43          43.02           36.8          89.78          20.98
    0.3718              -57.55          35.47          61.76          32.59        -0.6385         -19.44          42.43           43.0          36.79          89.77          20.99
    0.4028              -57.55          35.47          61.76           32.6        -0.6448         -19.44          42.44          42.98          36.79          89.76           21.0
    0.4338              -57.54          35.46          61.76          32.61        -0.6515         -19.44          42.44          42.96          36.78          89.75          21.01
    0.4648              -57.54          35.45          61.77          32.62        -0.6588         -19.44          42.45          42.93          36.78          89.73          21.02
    0.4957              -57.54          35.44          61.77          32.63        -0.6667         -19.44          42.45          42.91          36.77          89.72          21.03
    0.5267              -57.53          35.43          61.78          32.64        -0.6754         -19.44          42.46          42.88          36.77           89.7          21.05
    0.5577              -57.53          35.42          61.78          32.65        -0.6848         -19.44          42.46          42.85          36.76          89.69          21.06
    0.5887              -57.52           35.4          61.79          32.67        -0.6952         -19.43          42.47          42.81          36.75          89.67          21.08
    0.6197              -57.51          35.39           61.8          32.69        -0.7065         -19.43          42.47          42.78          36.74          89.65          21.09
    0.6507              -57.51          35.38           61.8           32.7        -0.7191         -19.43          42.48          42.74          36.73          89.62          21.11
    0.6816               -57.5          35.36          61.81          32.72        -0.7329         -19.43          42.49          42.69          36.72           89.6          21.13
    0.7126              -57.49          35.34          61.82          32.74        -0.7482         -19.42           42.5          42.64          36.71          89.57          21.15
    0.7436              -57.48          35.32          61.83          32.77        -0.7652         -19.42          42.51          42.59           36.7          89.54          21.18
    0.7746              -57.47           35.3          61.84          32.79        -0.7841         -19.42          42.52          42.53          36.69           89.5          21.21
    0.8056              -57.46          35.27          61.85          32.82        -0.8054         -19.41          42.53          42.46          36.67          89.46          21.24
